<?xml version="1.0" standalone="no"?>
<!DOCTYPE svg PUBLIC "-//W3C//DTD SVG 20010904//EN"
 "http://www.w3.org/TR/2001/REC-SVG-20010904/DTD/svg10.dtd">
<svg version="1.0" xmlns="http://www.w3.org/2000/svg"
 width="1280.000000pt" height="629.000000pt" viewBox="0 0 1280.000000 629.000000"
 preserveAspectRatio="xMidYMid meet">

<g transform="translate(0.000000,629.000000) scale(0.100000,-0.100000)"
fill="#000000" stroke="none">
<path d="M3230 6104 c-58 -7 -134 -21 -170 -30 -36 -9 -90 -20 -120 -24 -86
-13 -160 -38 -154 -54 7 -18 -12 -31 -79 -56 -47 -18 -56 -24 -47 -35 9 -11
-9 -25 -97 -69 -88 -45 -104 -56 -86 -62 31 -9 21 -24 -57 -84 -66 -49 -83
-70 -60 -70 19 0 10 -17 -15 -28 -41 -19 -242 -34 -355 -27 -58 4 -152 13
-209 21 -200 27 -348 13 -518 -50 -21 -7 -67 -22 -102 -32 -80 -23 -190 -85
-375 -214 -167 -116 -217 -141 -289 -143 -91 -3 -120 8 -155 59 -25 35 -48 53
-98 75 -36 16 -70 27 -76 23 -13 -8 -3 -76 17 -115 21 -40 52 -57 147 -85 98
-29 214 -32 285 -8 26 9 108 50 181 91 128 73 229 113 321 128 42 7 43 6 37
-16 -20 -72 -136 -280 -204 -365 -85 -107 -105 -118 -244 -134 -145 -17 -132
-8 -156 -106 -12 -47 -36 -117 -52 -156 l-30 -71 25 -33 c14 -18 34 -53 44
-77 11 -25 24 -48 30 -51 7 -5 11 -53 11 -132 l0 -124 1594 0 1595 0 3 148 3
147 -35 38 c-36 39 -96 75 -163 96 -42 14 -55 29 -237 261 -122 154 -140 183
-140 222 0 43 162 200 189 184 11 -7 51 44 85 112 22 44 30 51 41 42 12 -10
17 -4 31 29 9 23 25 46 35 51 26 15 80 12 114 -6 23 -12 34 -13 50 -4 24 13
55 60 55 84 0 9 4 16 8 16 5 0 23 27 40 60 l32 60 -80 78 c-44 43 -85 93 -91
110 -6 17 -30 47 -54 66 -28 24 -46 47 -50 69 -11 47 -43 107 -59 107 -7 0
-56 22 -107 50 -52 27 -96 49 -99 49 -3 -1 -52 -7 -110 -15z m-1713 -1371 c63
-58 120 -118 127 -132 8 -14 17 -58 21 -97 l7 -71 59 -28 c54 -24 109 -73 109
-96 0 -5 -203 -9 -505 -9 -494 0 -505 0 -505 19 0 23 -48 62 -103 85 -60 25
-88 121 -51 175 16 22 21 23 93 17 63 -6 93 -3 171 18 185 47 258 80 350 156
47 39 91 70 99 70 7 0 65 -48 128 -107z m688 68 c118 -48 125 -54 125 -105 0
-40 -27 -108 -69 -172 -12 -18 -12 -27 5 -68 10 -26 38 -70 62 -98 23 -27 42
-52 42 -54 0 -2 -49 -4 -110 -4 -83 0 -110 3 -110 13 0 30 -58 76 -123 95 -77
23 -144 72 -164 120 -12 30 -37 281 -28 290 11 11 113 20 195 18 79 -3 109 -9
175 -35z m793 -97 c120 -63 137 -76 188 -149 25 -38 49 -59 84 -75 27 -13 59
-34 71 -46 12 -13 50 -33 85 -44 35 -12 83 -37 105 -56 l41 -34 -471 0 c-457
0 -471 1 -471 19 0 27 -50 66 -110 86 -86 29 -92 70 -19 140 28 28 70 75 94
106 l44 56 80 11 c43 6 94 18 113 26 18 8 39 15 46 15 8 1 62 -24 120 -55z"/>
<path d="M580 3195 l0 -125 1595 0 1595 0 0 125 0 125 -1595 0 -1595 0 0 -125z"/>
<path d="M8495 2820 c-112 -37 -186 -112 -237 -239 -21 -53 -23 -73 -26 -344
-2 -182 1 -306 8 -340 45 -220 230 -347 460 -315 168 23 285 131 325 299 21
91 22 570 0 652 -34 130 -104 219 -215 271 -86 40 -221 47 -315 16z m209 -184
c39 -16 78 -65 97 -121 16 -45 20 -503 6 -586 -10 -59 -52 -125 -93 -144 -18
-8 -56 -15 -86 -15 -72 0 -117 31 -149 102 -22 50 -23 67 -27 290 -6 332 10
406 97 465 40 27 104 30 155 9z"/>
<path d="M570 2275 c0 -328 4 -585 11 -647 74 -684 583 -1248 1254 -1389 208
-43 462 -43 670 0 409 86 776 337 1008 691 99 151 187 363 221 535 31 156 36
266 36 808 l0 547 -125 0 -124 0 -4 -612 c-3 -537 -5 -622 -21 -685 -130 -548
-520 -932 -1066 -1049 -119 -26 -401 -26 -520 0 -486 104 -870 440 -1019 890
-66 197 -64 174 -68 844 l-4 612 -125 0 -124 0 0 -545z"/>
<path d="M1563 2263 c4 -612 3 -600 68 -731 67 -137 199 -253 347 -304 97 -33
287 -33 384 0 147 51 277 163 344 297 69 139 67 121 71 738 l4 557 -125 0
-126 0 0 -523 c0 -576 -2 -596 -62 -689 -73 -115 -216 -178 -354 -156 -116 18
-214 93 -267 206 l-32 67 -3 548 -3 547 -125 0 -126 0 5 -557z"/>
<path d="M4510 2205 l0 -617 223 4 c216 3 223 4 280 30 112 53 200 162 244
303 15 51 18 95 18 285 0 204 -2 231 -22 295 -41 129 -126 234 -232 287 -43
22 -59 23 -278 26 l-233 3 0 -616z m442 393 c40 -30 73 -93 89 -168 7 -31 9
-130 7 -253 -5 -226 -14 -265 -73 -334 -39 -46 -86 -63 -174 -63 l-61 0 0 426
0 426 88 -4 c78 -3 93 -6 124 -30z"/>
<path d="M5480 2205 l0 -615 345 0 345 0 0 95 0 95 -230 0 -230 0 0 175 0 175
195 0 195 0 0 95 0 95 -195 0 -195 0 0 155 0 155 230 0 230 0 0 95 0 95 -345
0 -345 0 0 -615z"/>
<path d="M6760 2205 l0 -615 310 0 310 0 0 95 0 95 -197 2 -198 3 -3 518 -2
517 -110 0 -110 0 0 -615z"/>
<path d="M7283 2803 c2 -10 75 -184 161 -386 l156 -368 0 -230 0 -229 115 0
115 0 0 223 0 222 161 380 c88 209 163 386 166 393 4 9 -24 12 -119 12 l-124
0 -93 -252 c-51 -139 -96 -257 -101 -261 -4 -4 -49 109 -101 252 l-94 261
-124 0 c-113 0 -123 -1 -118 -17z"/>
<path d="M9240 2205 l0 -615 115 0 115 0 2 398 3 397 180 -395 180 -395 113
-3 112 -3 0 616 0 615 -110 0 -110 0 0 -391 c0 -214 -3 -388 -8 -385 -4 2 -86
178 -182 390 l-175 386 -117 0 -118 0 0 -615z"/>
</g>
</svg>
