<?xml version="1.0" standalone="no"?>
<!DOCTYPE svg PUBLIC "-//W3C//DTD SVG 20010904//EN"
 "http://www.w3.org/TR/2001/REC-SVG-20010904/DTD/svg10.dtd">
<svg version="1.0" xmlns="http://www.w3.org/2000/svg"
 width="240.000000pt" height="210.000000pt" viewBox="0 0 240.000000 210.000000"
 preserveAspectRatio="xMidYMid meet">
<metadata>
Created by potrace 1.10, written by Peter Selinger 2001-2011
</metadata>
<g transform="translate(0.000000,210.000000) scale(0.100000,-0.100000)"
fill="#000000" stroke="none">
<path d="M680 1485 c-7 -8 -10 -25 -6 -39 11 -45 71 -45 82 0 8 30 -11 54 -41
54 -12 0 -28 -7 -35 -15z"/>
<path d="M370 1310 c-66 -14 -130 -59 -165 -114 -27 -44 -30 -58 -30 -130 0
-68 4 -88 25 -126 32 -57 102 -105 176 -120 92 -19 210 6 234 49 13 25 12 26
-31 4 -19 -10 -64 -19 -104 -21 -65 -3 -74 -1 -125 30 -65 39 -99 93 -107 170
-15 152 83 251 234 235 64 -7 97 -31 99 -74 1 -38 24 -42 24 -4 0 16 4 41 9
54 9 23 7 26 -35 36 -65 17 -153 21 -204 11z m-152 -184 c-8 -41 11 -148 33
-185 l21 -36 -22 20 c-12 11 -28 32 -36 47 -20 39 -18 178 3 178 3 0 3 -11 1
-24z"/>
<path d="M1995 1310 c-96 -23 -167 -85 -190 -164 -19 -62 -19 -100 -1 -160 20
-67 58 -110 122 -142 46 -22 71 -28 133 -28 83 -1 165 23 175 51 9 24 3 25
-35 6 -19 -9 -62 -19 -97 -21 -157 -11 -265 122 -232 283 20 97 93 154 197
155 86 0 133 -28 133 -81 0 -16 5 -29 10 -29 6 0 10 13 10 29 0 16 4 41 9 54
9 23 7 25 -59 41 -71 17 -125 19 -175 6z"/>
<path d="M686 1294 c-30 -30 -13 -74 29 -74 42 0 59 44 29 74 -8 9 -22 16 -29
16 -7 0 -21 -7 -29 -16z"/>
<path d="M810 1295 c0 -10 10 -15 29 -15 17 0 31 -6 35 -16 8 -20 8 -378 0
-398 -4 -10 -18 -16 -35 -16 -18 0 -29 -5 -29 -14 0 -11 19 -14 85 -14 64 0
85 3 85 13 0 8 -14 15 -32 17 l-33 3 -5 183 c-3 100 -3 182 0 182 3 0 48 -92
100 -205 52 -112 98 -201 101 -197 4 4 27 52 52 107 93 207 135 297 141 303 4
3 5 -79 4 -184 l-3 -189 -32 -3 c-19 -2 -33 -9 -33 -16 0 -10 25 -13 100 -13
75 0 100 3 100 13 0 7 -14 14 -32 16 l-33 3 0 210 0 210 33 3 c19 2 32 9 32
17 0 11 -15 14 -68 13 l-68 -1 -39 -86 c-22 -47 -63 -135 -91 -196 -48 -101
-53 -108 -62 -85 -6 14 -42 93 -82 175 -40 83 -76 159 -80 170 -7 18 -18 21
-74 23 -52 1 -66 -2 -66 -13z"/>
<path d="M692 1164 c-28 -19 -26 -51 3 -70 18 -12 24 -11 43 2 26 18 28 46 6
68 -19 20 -24 20 -52 0z"/>
<path d="M1564 1170 c-42 -13 -100 -69 -113 -109 -25 -76 2 -172 60 -214 53
-38 175 -30 215 14 24 26 12 34 -25 15 -88 -46 -191 11 -191 106 0 22 3 23 56
19 31 -1 86 0 122 4 l64 7 -6 41 c-4 23 -14 52 -22 64 -32 49 -99 71 -160 53z
m95 -46 c12 -15 21 -41 21 -60 l0 -34 -85 0 -85 0 0 29 c0 17 11 42 26 60 35
42 92 44 123 5z"/>
<path d="M682 1028 c-19 -19 -14 -46 12 -63 29 -19 54 -10 62 21 11 43 -42 74
-74 42z"/>
<path d="M682 898 c-29 -29 7 -86 47 -73 26 8 38 50 21 70 -15 18 -51 20 -68
3z"/>
<path d="M170 731 c-14 -27 -13 -74 3 -95 16 -21 45 -18 61 6 14 23 -2 37 -18
15 -20 -27 -26 -21 -26 28 0 25 5 45 10 45 6 0 10 -4 10 -10 0 -5 7 -10 16
-10 11 0 14 5 10 16 -3 9 -6 18 -6 20 0 14 -51 1 -60 -15z"/>
<path d="M649 738 c0 -7 -2 -37 -4 -65 -3 -41 0 -53 11 -53 9 0 14 12 15 38 0
20 2 49 4 65 2 18 -1 27 -11 27 -8 0 -14 -6 -15 -12z"/>
<path d="M870 685 c0 -78 18 -87 22 -12 l4 52 8 -52 c5 -29 12 -53 17 -53 4 0
11 20 15 45 3 25 10 48 16 51 5 3 6 -14 2 -45 -6 -43 -4 -51 10 -51 13 0 16
12 16 65 0 57 -2 65 -19 65 -21 0 -31 -18 -31 -58 0 -21 -2 -24 -10 -12 -5 8
-10 27 -10 43 0 20 -5 27 -20 27 -18 0 -20 -7 -20 -65z"/>
<path d="M1165 731 c5 -16 2 -18 -14 -14 -15 4 -22 -1 -27 -21 -3 -14 -3 -38
0 -52 5 -20 12 -25 34 -22 26 3 27 6 30 66 2 52 0 62 -13 62 -12 0 -15 -6 -10
-19z m0 -61 c0 -13 -6 -25 -12 -27 -9 -3 -13 6 -13 27 0 21 4 30 13 28 6 -3
12 -15 12 -28z"/>
<path d="M1217 691 c-17 -61 -22 -99 -11 -88 3 3 14 36 24 74 l18 68 1 -62 c1
-63 1 -63 31 -63 28 0 57 29 44 43 -3 3 -7 23 -7 44 -2 37 -3 38 -43 41 l-40
3 -17 -60z"/>
<path d="M1657 743 c-14 -14 -6 -42 18 -61 28 -22 33 -42 10 -42 -8 0 -15 7
-15 15 0 8 -5 15 -11 15 -6 0 -9 -10 -7 -22 2 -18 10 -23 33 -23 25 0 31 4 33
26 2 19 -4 31 -22 43 -15 9 -26 21 -26 26 0 14 28 12 33 -2 2 -7 8 -10 12 -6
14 13 -4 38 -28 38 -13 0 -27 -3 -30 -7z"/>
<path d="M417 728 c-7 -20 7 -101 18 -105 8 -2 12 62 6 110 -2 12 -18 8 -24
-5z"/>
<path d="M262 708 c-27 -27 -2 -93 33 -87 24 5 32 30 8 27 -25 -4 -29 16 -3
20 21 4 24 10 14 36 -7 19 -35 21 -52 4z"/>
<path d="M340 669 c0 -27 5 -49 10 -49 6 0 10 18 10 40 0 22 5 40 10 40 6 0
10 -18 10 -40 0 -22 5 -40 11 -40 6 0 9 19 7 47 -3 44 -5 48 -30 50 -27 2 -28
0 -28 -48z"/>
<path d="M470 698 c-16 -35 3 -80 32 -76 12 2 23 9 26 16 2 7 -4 11 -15 10
-25 -4 -28 16 -3 20 15 3 20 10 18 25 -4 32 -45 35 -58 5z"/>
<path d="M550 669 c0 -27 5 -49 10 -49 6 0 10 16 10 35 0 19 5 35 10 35 19 0
10 26 -10 27 -18 2 -20 -4 -20 -48z"/>
<path d="M694 707 c-3 -8 -4 -30 -2 -49 2 -28 7 -33 28 -33 23 0 25 4 25 45 0
39 -3 45 -23 48 -13 2 -24 -3 -28 -11z m36 -37 c0 -16 -4 -30 -10 -30 -5 0
-10 14 -10 30 0 17 5 30 10 30 6 0 10 -13 10 -30z"/>
<path d="M770 669 c0 -37 4 -49 15 -49 11 0 13 8 9 30 -5 22 -2 31 10 36 25
10 19 32 -9 32 -23 0 -25 -4 -25 -49z"/>
<path d="M1000 670 c0 -27 5 -50 10 -50 6 0 10 23 10 50 0 28 -4 50 -10 50 -5
0 -10 -22 -10 -50z"/>
<path d="M1040 668 c0 -26 5 -48 10 -48 6 0 10 15 10 34 0 19 5 38 10 41 6 4
10 -10 10 -35 0 -25 4 -40 11 -38 6 2 10 7 10 11 -1 4 -1 25 -1 46 0 38 -2 40
-30 39 -29 -1 -30 -3 -30 -50z"/>
<path d="M1340 669 c0 -39 3 -49 16 -49 13 0 15 7 11 29 -4 19 -1 33 8 41 21
18 18 25 -10 26 -23 2 -25 -1 -25 -47z"/>
<path d="M1407 714 c-15 -15 -6 -25 16 -18 20 6 20 5 -5 -19 -34 -32 -28 -56
13 -55 29 1 30 2 27 47 -2 37 -7 47 -23 49 -12 2 -24 0 -28 -4z"/>
<path d="M1480 670 c0 -27 5 -50 10 -50 6 0 10 23 10 50 0 28 -4 50 -10 50 -5
0 -10 -22 -10 -50z"/>
<path d="M1530 669 c0 -27 5 -49 10 -49 6 0 10 18 10 40 0 22 5 40 10 40 6 0
10 -18 10 -40 0 -22 5 -40 11 -40 6 0 9 19 7 47 -3 44 -5 48 -30 50 -27 2 -28
0 -28 -48z"/>
<path d="M1744 706 c-3 -8 -4 -29 -2 -48 2 -25 8 -34 26 -36 22 -3 42 22 27
36 -4 4 -10 1 -12 -5 -9 -24 -23 -13 -23 17 0 30 14 41 23 18 2 -7 8 -10 12
-6 4 4 5 14 2 23 -8 19 -46 20 -53 1z"/>
<path d="M1820 670 c0 -27 5 -50 10 -50 6 0 10 23 10 50 0 28 -4 50 -10 50 -5
0 -10 -22 -10 -50z"/>
<path d="M1864 707 c-3 -8 -4 -30 -2 -49 2 -27 7 -33 27 -33 13 0 26 6 29 14
3 9 -1 11 -17 6 -15 -5 -21 -2 -21 9 0 10 9 16 21 16 15 0 20 5 17 23 -4 26
-45 37 -54 14z"/>
<path d="M1940 668 c0 -26 5 -48 10 -48 6 0 10 15 10 34 0 19 5 38 10 41 6 4
10 -10 10 -34 0 -29 4 -41 14 -41 11 0 13 11 11 43 -2 23 -4 45 -4 49 -1 4
-14 6 -31 6 -29 -1 -30 -3 -30 -50z"/>
<path d="M2024 696 c-10 -42 -1 -71 24 -74 22 -3 42 22 27 36 -4 4 -10 1 -12
-5 -9 -24 -23 -13 -23 17 0 30 14 41 23 18 2 -7 8 -10 12 -6 13 12 -3 38 -24
38 -13 0 -23 -9 -27 -24z"/>
<path d="M2104 707 c-3 -8 -4 -30 -2 -49 2 -27 7 -33 27 -33 13 0 26 6 29 14
3 9 -1 11 -17 6 -15 -5 -21 -2 -21 9 0 10 9 16 21 16 15 0 20 5 17 23 -4 26
-45 37 -54 14z"/>
<path d="M2181 706 c-10 -12 -7 -19 16 -41 l28 -26 -30 7 c-27 7 -29 6 -16 -9
17 -22 50 -22 58 0 4 11 -3 24 -23 41 l-29 24 28 -6 c21 -5 28 -3 25 6 -6 19
-43 21 -57 4z"/>
</g>
</svg>
