<?xml version="1.0" standalone="no"?>
<!DOCTYPE svg PUBLIC "-//W3C//DTD SVG 20010904//EN"
 "http://www.w3.org/TR/2001/REC-SVG-20010904/DTD/svg10.dtd">
<svg version="1.0" xmlns="http://www.w3.org/2000/svg"
 width="540.000000pt" height="219.000000pt" viewBox="0 0 540.000000 219.000000"
 preserveAspectRatio="xMidYMid meet">

<g transform="translate(0.000000,219.000000) scale(0.100000,-0.100000)"
fill="#000000" stroke="none">
<path d="M732 1748 l3 -443 108 -3 107 -3 0 446 0 445 -110 0 -110 0 2 -442z"/>
<path d="M2037 1969 c-117 -28 -187 -106 -187 -209 0 -114 61 -164 245 -199
105 -21 135 -34 135 -61 0 -27 -25 -48 -71 -60 -57 -15 -131 2 -197 46 l-53
35 -54 -52 c-30 -29 -55 -56 -55 -61 0 -18 122 -86 184 -103 97 -26 234 -18
309 19 193 94 177 317 -27 378 -17 5 -62 15 -101 23 -102 22 -125 33 -125 61
0 59 121 65 228 11 l43 -21 51 51 c29 29 48 56 44 62 -13 21 -108 62 -175 77
-74 15 -137 16 -194 3z"/>
<path d="M2737 1970 c-159 -41 -244 -176 -235 -373 5 -103 25 -160 77 -220 79
-89 237 -121 382 -77 63 19 81 30 137 86 35 35 62 69 60 75 -2 7 -36 23 -74
37 l-71 25 -40 -44 c-38 -41 -44 -43 -105 -47 -101 -6 -152 30 -168 118 l-7
40 235 0 235 0 -6 68 c-16 195 -123 307 -302 317 -44 2 -97 0 -118 -5z m158
-146 c32 -15 65 -64 65 -98 0 -14 -18 -16 -130 -16 -143 0 -145 1 -115 61 33
62 112 86 180 53z"/>
<path d="M1425 1956 c-16 -7 -44 -25 -62 -40 l-32 -27 -3 33 -3 33 -97 3 -98
3 0 -331 0 -330 94 0 94 0 4 223 c4 237 10 265 55 286 43 20 82 13 114 -18
l29 -29 0 -231 0 -231 95 0 96 0 -3 284 c-3 323 -3 320 -88 364 -51 25 -146
30 -195 8z"/>
<path d="M3591 1954 c-30 -8 -69 -26 -87 -39 -18 -14 -35 -25 -38 -25 -3 0 -6
16 -6 35 l0 35 -95 0 -95 0 0 -330 0 -330 94 0 94 0 4 203 c2 137 8 209 16
224 17 30 58 50 120 59 l52 7 0 88 c0 49 -1 89 -2 88 -2 0 -27 -7 -57 -15z"/>
<path d="M4025 1952 c-22 -11 -49 -29 -60 -42 l-20 -22 -5 33 -5 34 -92 3 -93
3 0 -331 0 -331 93 3 92 3 5 230 c3 127 9 236 14 244 5 7 24 20 43 28 28 11
42 12 70 2 57 -19 63 -46 63 -294 l0 -215 95 0 95 0 0 220 c0 254 4 271 69
291 30 9 44 9 67 -2 50 -24 54 -45 54 -286 l0 -223 96 0 95 0 -3 283 c-3 274
-4 283 -26 314 -61 86 -223 99 -330 27 l-34 -22 -45 31 c-39 28 -54 32 -121
35 -59 2 -86 -2 -117 -16z"/>
<path d="M780 1112 c-135 -67 -85 -272 66 -272 112 0 183 139 117 229 -24 33
-79 61 -118 61 -16 0 -46 -8 -65 -18z"/>
<path d="M730 405 l0 -96 57 3 c46 2 59 7 61 21 3 14 -4 17 -32 17 l-36 0 0
75 c0 73 -1 75 -25 75 -25 0 -25 0 -25 -95z"/>
<path d="M1370 485 c0 -8 9 -15 20 -15 11 0 20 7 20 15 0 8 -9 15 -20 15 -11
0 -20 -7 -20 -15z"/>
<path d="M2752 408 c3 -79 6 -93 21 -96 15 -3 17 6 17 92 0 90 -1 96 -20 96
-20 0 -21 -5 -18 -92z"/>
<path d="M3637 493 c-12 -11 -8 -23 7 -23 7 0 19 7 26 15 10 12 9 15 -7 15
-11 0 -23 -3 -26 -7z"/>
<path d="M3500 470 c0 -11 -4 -20 -10 -20 -5 0 -10 -7 -10 -15 0 -8 5 -15 10
-15 6 0 10 -22 10 -49 0 -35 4 -51 16 -55 29 -11 44 -6 44 14 0 11 -4 20 -10
20 -5 0 -10 16 -10 35 0 19 5 35 10 35 6 0 10 7 10 15 0 8 -4 15 -10 15 -5 0
-10 9 -10 20 0 13 -7 20 -20 20 -13 0 -20 -7 -20 -20z"/>
<path d="M892 444 c-12 -8 -22 -19 -22 -25 0 -12 37 -12 45 1 9 15 25 12 25
-5 0 -8 -9 -15 -20 -15 -20 0 -60 -33 -60 -49 0 -23 32 -39 75 -39 l45 1 0 64
c0 59 -2 64 -26 73 -33 13 -36 13 -62 -6z m40 -96 c-6 -6 -16 -7 -23 -3 -9 6
-7 12 7 22 21 15 34 -1 16 -19z"/>
<path d="M1113 450 c-41 -17 -27 -73 21 -81 27 -5 33 -29 7 -29 -11 0 -23 5
-26 10 -5 8 -12 7 -22 -1 -32 -27 44 -52 88 -29 36 20 20 73 -24 81 -27 6 -20
25 8 21 33 -5 41 16 10 28 -31 12 -33 12 -62 0z"/>
<path d="M1263 450 c-66 -27 -50 -140 20 -140 34 0 65 25 50 41 -10 10 -15 9
-28 -1 -21 -18 -47 5 -43 39 3 22 8 26 37 26 42 0 50 18 16 33 -14 7 -27 12
-28 11 -1 0 -12 -4 -24 -9z"/>
<path d="M1471 447 c-52 -26 -48 -120 5 -133 32 -8 74 3 81 22 9 23 -4 29 -32
14 -20 -11 -27 -11 -41 1 -16 12 -12 15 32 19 55 6 66 23 37 58 -24 27 -53 34
-82 19z m49 -32 c11 -13 8 -15 -20 -15 -28 0 -31 2 -20 15 7 8 16 15 20 15 4
0 13 -7 20 -15z"/>
<path d="M1627 453 l-38 -4 3 -67 c2 -53 6 -67 20 -70 14 -3 17 6 20 50 2 40
7 54 20 56 14 3 17 -6 20 -50 2 -41 7 -54 21 -56 15 -3 17 5 17 62 0 54 -3 67
-19 76 -11 5 -21 9 -23 8 -2 -1 -20 -3 -41 -5z"/>
<path d="M1766 439 c-70 -55 8 -168 80 -115 15 12 16 17 7 27 -10 10 -15 9
-28 -1 -21 -18 -47 5 -43 39 2 21 9 26 33 27 49 2 51 4 26 24 -29 25 -42 25
-75 -1z"/>
<path d="M1915 448 c-29 -16 -35 -28 -35 -69 0 -62 57 -89 109 -53 29 21 13
41 -19 24 -23 -12 -50 -7 -50 10 0 5 20 10 45 10 41 0 45 2 45 24 0 15 -11 33
-26 45 -30 24 -41 25 -69 9z m55 -39 c0 -5 -11 -9 -25 -9 -26 0 -34 15 -12 23
16 5 37 -3 37 -14z"/>
<path d="M2148 452 l-38 -3 0 -90 c0 -82 1 -89 20 -89 14 0 20 7 20 24 0 19 4
22 24 19 53 -10 91 83 49 119 -26 22 -34 24 -75 20z m50 -76 c-2 -23 -8 -31
-23 -31 -24 0 -34 48 -14 71 18 22 41 -2 37 -40z"/>
<path d="M2295 448 c-29 -16 -35 -28 -35 -70 0 -27 6 -41 22 -52 51 -36 118
-5 118 53 0 55 -61 95 -105 69z m63 -59 c3 -30 -18 -52 -42 -43 -16 6 -23 54
-9 68 16 16 48 1 51 -25z"/>
<path d="M2853 450 c-28 -12 -30 -40 -3 -40 11 0 20 5 20 10 0 6 7 10 15 10 8
0 15 -7 15 -15 0 -8 -9 -15 -19 -15 -10 0 -29 -8 -42 -19 -20 -16 -22 -22 -12
-44 11 -23 18 -26 63 -25 l50 1 0 64 c0 59 -2 64 -26 73 -30 12 -32 12 -61 0z
m44 -95 c-7 -16 -37 -21 -37 -5 0 10 32 31 39 25 2 -2 1 -11 -2 -20z"/>
<path d="M3074 450 c-44 -18 -40 -67 7 -77 16 -3 32 -10 35 -14 9 -15 -25 -22
-42 -9 -12 10 -17 11 -27 1 -9 -10 -8 -15 7 -27 40 -29 106 -10 106 30 0 28
-14 41 -54 50 -20 5 -26 10 -19 17 8 8 17 8 31 0 15 -8 23 -7 32 4 10 12 7 16
-15 25 -30 12 -33 12 -61 0z"/>
<path d="M3213 450 c-13 -5 -23 -16 -23 -25 0 -17 25 -21 35 -5 9 14 35 12 35
-3 0 -7 -14 -17 -32 -22 -40 -13 -57 -38 -42 -62 8 -13 25 -18 63 -19 l51 -2
0 57 c0 31 -4 61 -8 68 -10 17 -53 24 -79 13z m44 -95 c-4 -8 -13 -15 -22 -15
-21 0 -19 28 3 32 22 5 26 2 19 -17z"/>
<path d="M3378 452 l-38 -3 0 -70 c0 -62 2 -70 18 -67 13 2 18 15 20 56 3 44
6 53 20 50 13 -2 18 -16 20 -56 3 -44 6 -53 20 -50 12 2 18 15 20 42 7 81 -13
104 -80 98z"/>
<path d="M3610 447 c-14 -7 -28 -26 -34 -45 -17 -61 48 -112 104 -82 21 11 28
40 10 40 -6 0 -19 -6 -30 -12 -16 -10 -23 -10 -37 5 -16 16 -15 17 35 17 44 0
52 3 52 19 0 24 -29 57 -55 65 -11 3 -31 0 -45 -7z m50 -32 c11 -13 8 -15 -14
-15 -25 0 -33 10 -19 23 10 11 19 8 33 -8z"/>
<path d="M1370 379 c0 -62 2 -70 18 -67 14 3 18 16 20 71 3 62 1 67 -18 67
-18 0 -20 -6 -20 -71z"/>
<path d="M2432 383 l3 -68 55 0 55 0 3 68 c3 62 1 67 -18 67 -17 0 -20 -6 -20
-44 0 -52 -22 -79 -39 -47 -6 11 -11 36 -11 55 0 26 -4 36 -15 36 -13 0 -15
-12 -13 -67z"/>
<path d="M2580 379 c0 -62 2 -69 20 -69 17 0 20 7 20 49 0 41 4 51 20 56 36
11 23 33 -20 33 l-40 1 0 -70z"/>
<path d="M1900 100 c0 -83 1 -90 20 -90 16 0 20 7 20 35 0 35 0 35 45 35 38 0
45 3 45 20 0 17 -7 20 -45 20 -38 0 -45 3 -45 20 0 17 7 20 50 20 38 0 50 4
50 15 0 12 -14 15 -70 15 l-70 0 0 -90z"/>
<path d="M2890 175 c0 -8 9 -15 20 -15 11 0 20 7 20 15 0 8 -9 15 -20 15 -11
0 -20 -7 -20 -15z"/>
<path d="M3960 100 c0 -82 2 -90 19 -90 17 0 20 8 23 47 2 36 7 49 21 51 14 3
17 -4 17 -47 0 -44 3 -51 20 -51 18 0 20 7 20 59 0 66 -15 87 -55 77 -22 -6
-25 -3 -25 19 0 18 -5 25 -20 25 -19 0 -20 -7 -20 -90z"/>
<path d="M4420 100 c0 -83 1 -90 20 -90 19 0 20 7 20 90 0 83 -1 90 -20 90
-19 0 -20 -7 -20 -90z"/>
<path d="M4580 100 c0 -82 2 -90 19 -90 17 0 20 8 23 47 2 36 7 49 21 51 14 3
17 -4 17 -47 0 -44 3 -51 20 -51 18 0 20 7 20 59 0 66 -15 87 -55 77 -22 -6
-25 -3 -25 19 0 18 -5 25 -20 25 -19 0 -20 -7 -20 -90z"/>
<path d="M3640 161 c0 -11 -6 -22 -12 -24 -10 -4 -10 -7 -1 -14 6 -5 13 -31
15 -58 3 -46 5 -50 31 -53 19 -2 27 1 27 12 0 9 -4 16 -10 16 -5 0 -10 18 -10
40 0 29 4 40 15 40 8 0 15 5 15 10 0 6 -7 10 -15 10 -8 0 -15 9 -15 20 0 13
-7 20 -20 20 -13 0 -20 -7 -20 -19z"/>
<path d="M4500 161 c0 -11 -6 -22 -12 -24 -10 -4 -10 -7 -1 -14 6 -5 13 -31
15 -58 3 -46 5 -50 31 -53 19 -2 27 1 27 12 0 9 -4 16 -10 16 -15 0 -12 77 3
84 10 5 10 7 0 12 -7 3 -13 14 -13 25 0 12 -7 19 -20 19 -13 0 -20 -7 -20 -19z"/>
<path d="M2170 130 c-23 -23 -27 -77 -6 -105 20 -28 83 -26 107 4 56 69 -39
163 -101 101z m70 -24 c6 -8 10 -25 8 -38 -2 -17 -10 -23 -28 -23 -20 0 -26 6
-28 29 -5 40 25 59 48 32z"/>
<path d="M2348 142 c-27 -3 -28 -5 -28 -68 0 -50 3 -64 15 -64 10 0 15 10 15
34 0 44 9 66 26 66 10 0 14 -14 14 -50 0 -43 3 -50 19 -50 17 0 20 8 23 47 2
36 7 49 21 51 14 3 17 -4 17 -47 0 -44 3 -51 20 -51 18 0 20 7 20 59 0 37 -5
63 -12 68 -13 8 -102 11 -150 5z"/>
<path d="M2624 129 c-23 -25 -11 -49 32 -64 39 -12 41 -15 24 -25 -8 -5 -22
-4 -33 2 -13 7 -22 7 -30 -1 -17 -17 5 -33 46 -34 81 -2 93 69 15 88 -16 4
-25 12 -22 17 3 5 17 7 29 4 27 -7 44 12 24 25 -24 15 -65 10 -85 -12z"/>
<path d="M2770 130 c-23 -23 -27 -77 -6 -105 16 -22 67 -25 91 -5 22 18 4 35
-22 21 -26 -13 -43 3 -43 41 0 31 24 48 42 30 6 -6 17 -8 25 -5 11 5 11 9 -3
24 -22 25 -59 24 -84 -1z"/>
<path d="M2980 130 c-23 -23 -27 -77 -6 -105 18 -25 80 -26 104 -2 14 15 15
19 3 26 -9 6 -19 4 -28 -5 -18 -17 -25 -18 -41 -2 -21 21 -13 28 33 28 38 0
45 3 45 20 0 28 -35 60 -65 60 -14 0 -34 -9 -45 -20z m68 -27 c2 -8 -6 -13
-22 -13 -25 0 -33 10 -19 24 10 10 36 3 41 -11z"/>
<path d="M3153 143 l-33 -4 0 -65 c0 -57 2 -64 20 -64 17 0 20 7 20 48 0 53 5
63 26 55 9 -3 14 -21 14 -54 0 -42 3 -49 20 -49 18 0 20 7 20 54 0 55 -17 88
-43 84 -7 0 -27 -3 -44 -5z"/>
<path d="M3289 131 c-27 -22 -30 -84 -5 -109 20 -20 73 -20 93 1 15 15 15 17
0 23 -10 3 -23 1 -30 -4 -19 -16 -39 2 -39 33 0 36 14 50 39 37 10 -6 25 -7
32 -3 10 6 7 12 -10 25 -30 21 -51 20 -80 -3z"/>
<path d="M3425 125 c-14 -13 -25 -36 -25 -50 0 -30 41 -75 68 -75 24 0 70 35
60 46 -5 4 -20 2 -34 -5 -20 -9 -30 -9 -40 0 -25 21 -15 29 36 29 57 0 63 11
29 54 -26 33 -62 34 -94 1z m69 -20 c4 -11 -1 -15 -19 -15 -24 0 -32 10 -18
23 11 12 31 8 37 -8z"/>
<path d="M3740 130 c-26 -26 -26 -81 0 -105 46 -42 120 -10 120 52 0 42 -30
73 -70 73 -17 0 -39 -9 -50 -20z m70 -24 c6 -8 10 -25 8 -38 -2 -17 -10 -23
-28 -23 -18 0 -26 6 -28 23 -3 22 13 52 28 52 4 0 13 -7 20 -14z"/>
<path d="M4130 130 c-23 -23 -27 -77 -6 -105 18 -25 80 -26 104 -2 14 15 15
19 3 26 -9 6 -19 4 -28 -5 -18 -17 -25 -18 -41 -2 -21 21 -13 28 33 28 38 0
45 3 45 20 0 28 -35 60 -65 60 -14 0 -34 -9 -45 -20z m68 -27 c2 -8 -6 -13
-22 -13 -25 0 -33 10 -19 24 10 10 36 3 41 -11z"/>
<path d="M4288 139 c-31 -18 -21 -32 18 -24 28 5 35 3 32 -7 -3 -7 -14 -14
-25 -16 -30 -5 -56 -37 -48 -61 7 -23 24 -28 77 -23 l38 4 0 59 c0 47 -4 60
-19 69 -25 13 -51 12 -73 -1z m52 -83 c0 -18 -27 -29 -36 -14 -4 5 0 14 7 19
20 13 29 11 29 -5z"/>
<path d="M2060 75 c0 -58 2 -65 20 -65 17 0 20 7 20 46 0 37 4 47 20 51 37 10
23 33 -20 33 l-40 0 0 -65z"/>
<path d="M2890 75 c0 -58 2 -65 20 -65 18 0 20 7 20 65 0 58 -2 65 -20 65 -18
0 -20 -7 -20 -65z"/>
<path d="M977 13 c133 -2 353 -2 490 0 136 1 28 2 -242 2 -269 0 -381 -1 -248
-2z"/>
</g>
</svg>
